<?xml version="1.0" encoding="utf-8"?>
<!-- Generator: Adobe Illustrator 20.1.0, SVG Export Plug-In . SVG Version: 6.00 Build 0)  -->
<svg version="1.1" id="Capa_1" xmlns="http://www.w3.org/2000/svg" xmlns:xlink="http://www.w3.org/1999/xlink" x="0px" y="0px"
	 viewBox="0 0 420 420" style="enable-background:new 0 0 420 420;" xml:space="preserve">
<style type="text/css">
	.st0{fill:#FFFFFF;}
	.st1{fill:#5185F3;}
	.st2{display:none;fill:#5185F3;}
	.st3{fill:#818181;}
</style>
<g>
	<g>
		<path class="st0" d="M210,410C99.7,410,10,320.3,10,210S99.7,10,210,10s200,89.7,200,200S320.3,410,210,410z"/>
		<path class="st1" d="M210,20c50.8,0,98.5,19.8,134.4,55.6S400,159.2,400,210s-19.8,98.5-55.6,134.4S260.8,400,210,400
			s-98.5-19.8-134.4-55.6S20,260.8,20,210s19.8-98.5,55.6-134.4S159.2,20,210,20 M210,0C94,0,0,94,0,210s94,210,210,210
			s210-94,210-210S326,0,210,0L210,0z"/>
	</g>
	<path class="st2" d="M210,21c104.2,0,189,84.8,189,189s-84.8,189-189,189S21,314.2,21,210S105.8,21,210,21 M210,0C94,0,0,94,0,210
		s94,210,210,210s210-94,210-210S326,0,210,0L210,0z"/>
</g>
<g>
	<path class="st3" d="M328.7,267.3c-1,2.2-2.6,3.4-5.1,3.4c-2.5,0-3.6-1.7-4.7-3.6c-4.9-8-11.2-14.5-19-19.8
		c-11.6-7.9-24.5-12.4-38.1-15c-13.3-2.5-26.8-3.1-40.3-3.4c-3.2-0.1-6.5,0-10,0c0,0.9,0,1.7,0,2.5c0,11.3,0,22.5,0,33.8
		c0,3.8-2.1,5.9-5.5,5.5c-0.9-0.1-1.8-0.5-2.5-1c-4.4-2.7-8.8-5.5-13.2-8.3c-7.2-4.6-14.4-9.3-21.6-13.9c-8-5.1-16-10.2-23.9-15.3
		c-7.8-5-15.6-10-23.4-14.9c-6-3.8-12.1-7.5-18.1-11.4c-1.2-0.8-2-2.1-3-3.1c0-0.8,0-1.7,0-2.5c1.4-1.3,2.7-2.7,4.3-3.8
		c2.8-2,5.8-3.7,8.7-5.6c7-4.5,14-9.1,21-13.6c8.2-5.3,16.4-10.5,24.6-15.7c7.7-4.9,15.4-9.8,23.1-14.7c7.2-4.6,14.4-9.2,21.7-13.7
		c3.9-2.5,7.9-0.2,7.9,4.6c0.1,10.5,0.1,21,0,31.4c0,2,0.6,2.6,2.5,2.8c13.4,1.8,26.5,4.8,39.3,9.1c11.2,3.8,22.1,8.2,32.1,14.6
		c5.2,3.4,10.3,7,15.2,10.9c6.8,5.4,12.2,12.1,16.9,19.4c3.4,5.3,5.4,11,7.5,16.8c2.1,5.8,2.7,11.8,3.6,17.8
		C328.7,262.8,328.7,265,328.7,267.3z"/>
	<path class="st1" d="M-688.5,261.6c0,0.2,0,0.4,0,0.6C-688.5,262-688.5,261.8-688.5,261.6 M206.8,132.1c-1,0-2.1,0.3-3.2,1
		c-7.2,4.5-14.5,9.1-21.7,13.7c-7.7,4.9-15.4,9.8-23.1,14.7c-8.2,5.2-16.4,10.5-24.6,15.7c-7,4.5-14,9.1-21,13.6
		c-2.9,1.9-5.8,3.6-8.7,5.6c-1.6,1.1-2.9,2.5-4.3,3.8c0,0.8,0,1.7,0,2.5c1,1.1,1.8,2.4,3,3.1c6,3.9,12.1,7.6,18.1,11.4
		c7.8,4.9,15.6,9.9,23.4,14.9c8,5.1,16,10.2,23.9,15.3c7.2,4.6,14.4,9.3,21.6,13.9c4.4,2.8,8.8,5.6,13.2,8.3c0.8,0.5,1.6,0.9,2.5,1
		c0.3,0,0.6,0.1,0.9,0.1c2.9,0,4.6-2,4.6-5.5c0-11.3,0-22.5,0-33.8c0-0.8,0-1.6,0-2.5c2.2,0,4.3,0,6.4,0c1.2,0,2.4,0,3.6,0
		c13.5,0.4,27,0.9,40.3,3.4c13.7,2.6,26.5,7.1,38.1,15c7.8,5.3,14.1,11.9,19,19.8c1.2,1.9,2.3,3.6,4.7,3.6c0,0,0,0,0.1,0
		c2.4,0,4-1.2,5-3.4c0-2.3,0-4.5,0-6.8c-0.9-6-1.5-12-3.6-17.8c-2.1-5.8-4.2-11.5-7.5-16.8c-4.7-7.4-10-14-16.9-19.4
		c-4.9-3.9-9.9-7.5-15.2-10.9c-10-6.4-20.9-10.8-32.1-14.6c-12.8-4.3-25.9-7.3-39.3-9.1c-1.9-0.3-2.6-0.8-2.5-2.8
		c0.1-10.5,0.1-21,0-31.4C211.5,134.2,209.5,132.1,206.8,132.1L206.8,132.1z"/>
</g>
</svg>
