<?xml version="1.0" encoding="utf-8"?>
<!-- Generator: Adobe Illustrator 20.1.0, SVG Export Plug-In . SVG Version: 6.00 Build 0)  -->
<svg version="1.1" id="Capa_1" xmlns="http://www.w3.org/2000/svg" xmlns:xlink="http://www.w3.org/1999/xlink" x="0px" y="0px"
	 viewBox="0 0 420 420" style="enable-background:new 0 0 420 420;" xml:space="preserve">
<style type="text/css">
	.st0{display:none;fill:#5185F3;}
	.st1{fill:#FFFFFF;}
	.st2{fill:#5185F3;}
</style>
<g>
	<path class="st0" d="M210,21c104.2,0,189,84.8,189,189s-84.8,189-189,189S21,314.2,21,210S105.8,21,210,21 M210,0C94,0,0,94,0,210
		s94,210,210,210s210-94,210-210S326,0,210,0L210,0z"/>
	<g>
		<path class="st1" d="M210,410C99.7,410,10,320.3,10,210S99.7,10,210,10s200,89.7,200,200S320.3,410,210,410z"/>
		<path class="st2" d="M210,20c50.8,0,98.5,19.8,134.4,55.6S400,159.2,400,210s-19.8,98.5-55.6,134.4S260.8,400,210,400
			s-98.5-19.8-134.4-55.6S20,260.8,20,210s19.8-98.5,55.6-134.4S159.2,20,210,20 M210,0C94,0,0,94,0,210s94,210,210,210
			s210-94,210-210S326,0,210,0L210,0z"/>
	</g>
	<path class="st2" d="M276.4,120.6c-4.8,0-10.2,1.5-15.8,4.5L240.7,136l15.7-58.5c1.5-5.6-1.8-11.4-7.4-12.9
		c-5.6-1.5-11.4,1.8-12.9,7.4l-20.9,77.8l-26.8,14.6H133c-19.3,0-35,15.8-35,35v21c0,19.3,15.8,35,35,35h53.9l-23.3,87
		c-1.5,5.6,1.8,11.4,7.4,12.9c3.8,1,7.6-0.2,10.1-2.7c1.3-1.3,2.2-2.9,2.7-4.7l22.2-82.8l54.5,29.7c5.7,3.1,11,4.5,15.8,4.5
		c12.4,0,21.1-9.8,21.1-26.4V147C297.5,130.3,288.9,120.6,276.4,120.6z M191.1,234.5c-1.5,0-9,0-16.7,0H133c-7.7,0-14-6.3-14-14v-21
		c0-7.7,6.3-14,14-14h41.4c7.7,0,15.2,0,16.7,0c1.5,0,3.7-0.6,5-1.3c1.1-0.6,6-3.3,11.6-6.3l-15.2,56.8
		C192,234.6,191.5,234.5,191.1,234.5z M276.5,265.6c0,7.7-5.5,11-12.3,7.3l-52.5-28.6l21.5-80.3l31-16.9c6.8-3.7,12.3-0.4,12.3,7.3
		C276.5,154.4,276.5,265.6,276.5,265.6z"/>
</g>
</svg>
