<?xml version="1.0" encoding="utf-8"?>
<!-- Generator: Adobe Illustrator 20.1.0, SVG Export Plug-In . SVG Version: 6.00 Build 0)  -->
<svg version="1.1" id="Capa_1" xmlns="http://www.w3.org/2000/svg" xmlns:xlink="http://www.w3.org/1999/xlink" x="0px" y="0px"
	 viewBox="0 0 420 420" style="enable-background:new 0 0 420 420;" xml:space="preserve">
<style type="text/css">
	.st0{fill:#FFFFFF;}
	.st1{fill:#5185F3;}
	.st2{display:none;fill:#5185F3;}
</style>
<g>
	<path class="st0" d="M210,410C99.7,410,10,320.3,10,210S99.7,10,210,10s200,89.7,200,200S320.3,410,210,410z"/>
	<path class="st1" d="M210,20c50.8,0,98.5,19.8,134.4,55.6S400,159.2,400,210s-19.8,98.5-55.6,134.4S260.8,400,210,400
		s-98.5-19.8-134.4-55.6S20,260.8,20,210s19.8-98.5,55.6-134.4S159.2,20,210,20 M210,0C94,0,0,94,0,210s94,210,210,210
		s210-94,210-210S326,0,210,0L210,0z"/>
</g>
<g>
	<path class="st2" d="M210,21c104.2,0,189,84.8,189,189s-84.8,189-189,189S21,314.2,21,210S105.8,21,210,21 M210,0C94,0,0,94,0,210
		s94,210,210,210s210-94,210-210S326,0,210,0L210,0z"/>
	<g>
		<path class="st1" d="M259,108.9c-19.3,0-35,15.8-35,35v132.1c0,19.3,15.8,35,35,35s35-15.8,35-35V143.9
			C294,124.7,278.3,108.9,259,108.9z M273,276.1c0,7.7-6.3,14-14,14s-14-6.3-14-14V143.9c0-7.7,6.3-14,14-14c7.7,0,14,6.3,14,14
			V276.1z"/>
		<path class="st1" d="M161,108.9c-19.3,0-35,15.8-35,35v132.1c0,19.3,15.8,35,35,35s35-15.8,35-35V143.9
			C196,124.7,180.3,108.9,161,108.9z M175,276.1c0,7.7-6.3,14-14,14s-14-6.3-14-14V143.9c0-7.7,6.3-14,14-14s14,6.3,14,14V276.1z"/>
	</g>
</g>
</svg>
