<?xml version="1.0" encoding="utf-8"?>
<!-- Generator: Adobe Illustrator 20.1.0, SVG Export Plug-In . SVG Version: 6.00 Build 0)  -->
<svg version="1.1" id="Capa_1" xmlns="http://www.w3.org/2000/svg" xmlns:xlink="http://www.w3.org/1999/xlink" x="0px" y="0px"
	 viewBox="0 0 420 420" style="enable-background:new 0 0 420 420;" xml:space="preserve">
<style type="text/css">
	.st0{fill:#FFFFFF;}
	.st1{fill:#5185F3;}
	.st2{display:none;}
</style>
<g>
	<g>
		<path class="st0" d="M210,410C99.7,410,10,320.3,10,210S99.7,10,210,10s200,89.7,200,200S320.3,410,210,410z"/>
		<path class="st1" d="M210,20c50.8,0,98.5,19.8,134.4,55.6S400,159.2,400,210s-19.8,98.5-55.6,134.4S260.8,400,210,400
			s-98.5-19.8-134.4-55.6S20,260.8,20,210s19.8-98.5,55.6-134.4S159.2,20,210,20 M210,0C94,0,0,94,0,210s94,210,210,210
			s210-94,210-210S326,0,210,0L210,0z"/>
	</g>
	<path class="st2" d="M210,21c104.2,0,189,84.8,189,189s-84.8,189-189,189S21,314.2,21,210S105.8,21,210,21 M210,0C94,0,0,94,0,210
		s94,210,210,210s210-94,210-210S326,0,210,0L210,0z"/>
	<path class="st1" d="M293.9,187.2l-111.8-73.6c-19.3-12.7-35.1-4.2-35.1,18.9v154.9c0,23.1,15.8,31.6,35.1,19l111.7-73.1
		C313.2,220.6,313.2,199.9,293.9,187.2z M279,217.9l-99.3,65c-6.4,4.2-11.7,1.4-11.7-6.3V143.4c0-7.7,5.3-10.5,11.7-6.3l99.3,65.4
		C285.5,206.7,285.5,213.6,279,217.9z"/>
</g>
</svg>
