<?xml version="1.0" encoding="utf-8"?>
<!-- Generator: Adobe Illustrator 20.1.0, SVG Export Plug-In . SVG Version: 6.00 Build 0)  -->
<svg version="1.1" id="Capa_1" xmlns="http://www.w3.org/2000/svg" xmlns:xlink="http://www.w3.org/1999/xlink" x="0px" y="0px"
	 viewBox="0 0 420 420" style="enable-background:new 0 0 420 420;" xml:space="preserve">
<style type="text/css">
	.st0{fill:#FFFFFF;}
	.st1{fill:#5185F3;}
	.st2{display:none;fill:#5185F3;}
</style>
<g>
	<path class="st0" d="M210,410C99.7,410,10,320.3,10,210S99.7,10,210,10s200,89.7,200,200S320.3,410,210,410z"/>
	<path class="st1" d="M210,20c50.8,0,98.5,19.8,134.4,55.6S400,159.2,400,210s-19.8,98.5-55.6,134.4S260.8,400,210,400
		s-98.5-19.8-134.4-55.6S20,260.8,20,210s19.8-98.5,55.6-134.4S159.2,20,210,20 M210,0C94,0,0,94,0,210s94,210,210,210
		s210-94,210-210S326,0,210,0L210,0z"/>
</g>
<g>
	<path class="st2" d="M210,21c104.2,0,189,84.8,189,189s-84.8,189-189,189S21,314.2,21,210S105.8,21,210,21 M210,0C94,0,0,94,0,210
		s94,210,210,210s210-94,210-210S326,0,210,0L210,0z"/>
	<path class="st1" d="M276.4,120.6c-4.8,0-10.2,1.5-15.8,4.5l-72.2,39.4H133c-19.3,0-35,15.8-35,35v21c0,19.3,15.8,35,35,35h55.4
		l72.2,39.4c5.7,3.1,11,4.5,15.8,4.5c12.4,0,21.1-9.8,21.1-26.4V147C297.5,130.3,288.9,120.6,276.4,120.6z M276.5,265.6
		c0,7.7-5.5,11-12.3,7.3l-53.4-29.1c-6.8-3.7-13.3-7.3-14.6-8c-1.3-0.7-3.6-1.3-5-1.3c-1.5,0-9,0-16.7,0H133c-7.7,0-14-6.3-14-14
		v-21c0-7.7,6.3-14,14-14h41.4c7.7,0,15.2,0,16.7,0c1.5,0,3.7-0.6,5-1.3c1.3-0.7,7.9-4.3,14.6-8l53.4-29.1
		c6.8-3.7,12.3-0.4,12.3,7.3L276.5,265.6L276.5,265.6L276.5,265.6z"/>
</g>
</svg>
