<?xml version="1.0" encoding="utf-8"?>
<!-- Generator: Adobe Illustrator 20.1.0, SVG Export Plug-In . SVG Version: 6.00 Build 0)  -->
<svg version="1.1" id="Capa_1" xmlns="http://www.w3.org/2000/svg" xmlns:xlink="http://www.w3.org/1999/xlink" x="0px" y="0px"
	 viewBox="0 0 420 420" style="enable-background:new 0 0 420 420;" xml:space="preserve">
<style type="text/css">
	.st0{fill:#FFFFFF;}
	.st1{fill:#5185F3;}
	.st2{display:none;fill:#5185F3;}
	.st3{fill:none;stroke:#5185F3;stroke-width:10;stroke-linecap:round;stroke-linejoin:round;stroke-miterlimit:10;}
</style>
<g>
	<path class="st0" d="M210,410C99.7,410,10,320.3,10,210S99.7,10,210,10s200,89.7,200,200S320.3,410,210,410z"/>
	<path class="st1" d="M210,20c50.8,0,98.5,19.8,134.4,55.6S400,159.2,400,210s-19.8,98.5-55.6,134.4S260.8,400,210,400
		s-98.5-19.8-134.4-55.6S20,260.8,20,210s19.8-98.5,55.6-134.4S159.2,20,210,20 M210,0C94,0,0,94,0,210s94,210,210,210
		s210-94,210-210S326,0,210,0L210,0z"/>
</g>
<g>
	<path class="st2" d="M166.5,68.3c78.2,0,141.8,63.6,141.8,141.8s-63.6,141.8-141.8,141.8S24.8,288.2,24.8,210S88.3,68.3,166.5,68.3
		 M166.5,52.5C79.5,52.5,9,123,9,210s70.5,157.5,157.5,157.5S324,297,324,210S253.5,52.5,166.5,52.5L166.5,52.5z"/>
	<path class="st1" d="M216.3,142.9c-3.6,0-7.6,1.1-11.9,3.4l-54.1,29.5h-41.6c-14.4,0-26.3,11.8-26.3,26.3v15.8
		c0,14.4,11.8,26.3,26.3,26.3h41.6l54.1,29.5c4.2,2.3,8.3,3.4,11.9,3.4c9.3,0,15.8-7.3,15.8-19.8v-94.5
		C232.1,150.3,225.6,142.9,216.3,142.9z M216.4,251.7c0,5.8-4.1,8.2-9.2,5.5l-40.1-21.9c-5.1-2.8-10-5.5-11-6c-1-0.5-2.7-1-3.8-1
		c-1.1,0-6.7,0-12.5,0h-31.1c-5.8,0-10.5-4.7-10.5-10.5v-15.8c0-5.8,4.7-10.5,10.5-10.5h31.1c5.8,0,11.4,0,12.5,0
		c1.1,0,2.8-0.4,3.8-1c1-0.5,5.9-3.2,11-6l40.1-21.9c5.1-2.8,9.2-0.3,9.2,5.5L216.4,251.7L216.4,251.7L216.4,251.7z"/>
</g>
<line class="st3" x1="267" y1="210" x2="327.7" y2="210"/>
</svg>
